<svg version="1.1" id="Layer_1" xmlns="http://www.w3.org/2000/svg" xmlns:xlink="http://www.w3.org/1999/xlink" 
	 viewBox="0 0 512 512" xml:space="preserve" height="100px" width="100px">
<g>
	<rect x="247.916" y="105.095" style="fill:#989487;" width="16.168" height="32.337"/>
	<path style="fill:#989487;" d="M247.916,320.674v86.232c0,4.465,3.62,8.084,8.084,8.084c4.465,0,8.084-3.62,8.084-8.084v-86.232
		v-32.337h-16.168V320.674z"/>
	<path style="fill:#989487;" d="M72.758,220.968V204.8H40.421v0.009c-3.962-0.005-7.427,2.897-8.003,6.933l-7.73,54.111
		c-1.173,8.209-8.311,14.4-16.604,14.4c-4.465,0-8.084,3.62-8.084,8.084s3.62,8.084,8.084,8.084
		c16.287,0,30.306-12.159,32.61-28.282l6.739-47.171H72.758z"/>
	
		<rect x="330.734" y="110.82" transform="matrix(-0.7071 -0.7071 0.7071 -0.7071 486.4309 461.6092)" style="fill:#989487;" width="16.168" height="38.484"/>
	
		<rect x="398.02" y="133.036" transform="matrix(-0.3639 -0.9314 0.9314 -0.3639 410.1761 588.6802)" style="fill:#989487;" width="16.169" height="42.482"/>
	
		<rect x="153.946" y="121.986" transform="matrix(0.7071 0.7071 -0.7071 0.7071 142.6989 -84.3654)" style="fill:#989487;" width="38.484" height="16.168"/>
	
		<rect x="84.646" y="146.174" transform="matrix(0.9315 0.3638 -0.3638 0.9315 63.3733 -27.9509)" style="fill:#989487;" width="42.481" height="16.169"/>
	<path style="fill:#989487;" d="M181.071,276.38l-27.213,27.213l0.031,0.031c-1.822,1.482-2.986,3.74-2.986,6.271v40.571
		c0,14.519-3.432,29.058-9.925,42.045c-1.997,3.994-0.378,8.849,3.615,10.846c1.161,0.581,2.394,0.855,3.609,0.855
		c2.965,0,5.821-1.638,7.237-4.47c7.61-15.22,11.633-32.259,11.633-49.276v-37.223l25.431-25.431L181.071,276.38z"/>
	<path style="fill:#989487;" d="M122.742,256.259l-35.789,13.98c-1.039-0.486-2.194-0.765-3.416-0.765
		c-4.465,0-8.084,3.62-8.084,8.084v40.571c0,11.785-6.548,22.38-17.089,27.651c-3.994,1.997-5.613,6.852-3.615,10.846
		c1.416,2.833,4.271,4.47,7.237,4.47c1.215,0,2.449-0.275,3.609-0.855c16.054-8.027,26.027-24.163,26.027-42.112v-32.355
		l37.004-14.455L122.742,256.259z"/>
	<path style="fill:#989487;" d="M503.916,280.253c-8.293,0-15.431-6.19-16.604-14.4l-7.73-54.111
		c-0.577-4.036-4.041-6.936-8.003-6.932v-0.01h-32.337v16.168h25.325l6.738,47.171c2.305,16.123,16.324,28.282,32.611,28.282
		c4.465,0,8.084-3.62,8.084-8.084S508.38,280.253,503.916,280.253z"/>
	<path style="fill:#989487;" d="M453.636,345.78c-10.541-5.271-17.089-15.867-17.089-27.651v-40.571c0-4.465-3.62-8.084-8.084-8.084
		c-1.222,0-2.378,0.279-3.416,0.765l-35.789-13.98l-5.883,15.06l37.004,14.455v32.355c0,17.948,9.973,34.085,26.027,42.112
		c1.161,0.581,2.394,0.855,3.609,0.855c2.965,0,5.821-1.637,7.237-4.47C459.249,352.632,457.63,347.777,453.636,345.78z"/>
	<path style="fill:#989487;" d="M361.095,350.466v-40.571c0-2.531-1.165-4.789-2.986-6.271l0.031-0.031l-27.213-27.213
		l-11.432,11.432l25.431,25.431v37.223c0,17.017,4.023,34.056,11.633,49.276c1.416,2.833,4.271,4.47,7.237,4.47
		c1.215,0,2.448-0.275,3.609-0.855c3.994-1.996,5.613-6.852,3.615-10.846C364.527,379.525,361.095,364.985,361.095,350.466z"/>
</g>
<path style="fill:#AB5034;" d="M256,288.337c-51.897,0-102.188-10.263-137.976-28.157c-28.344-14.172-45.266-31.853-45.266-47.296
	s16.922-33.124,45.266-47.296c35.788-17.894,86.079-28.157,137.976-28.157s102.188,10.263,137.976,28.157
	c28.344,14.172,45.266,31.853,45.266,47.296s-16.922,33.124-45.266,47.296C358.188,278.074,307.897,288.337,256,288.337z"/>
<path style="fill:#BD7155;" d="M256,137.432c-51.897,0-102.188,10.263-137.976,28.157c-28.344,14.172-45.266,31.853-45.266,47.296
	s16.922,33.124,45.266,47.296c2.397,1.199,4.863,2.359,7.387,3.489L386.589,162.1C351.44,146.368,304.421,137.432,256,137.432z"/>
<path style="fill:#E7E4CD;" d="M256,256c-38.16,0-75.138-5.865-101.453-16.09c-20.841-8.098-33.284-18.201-33.284-27.026
	s12.443-18.928,33.284-27.026c26.315-10.225,63.293-16.09,101.453-16.09s75.138,5.865,101.453,16.09
	c20.841,8.098,33.284,18.201,33.284,27.026s-12.443,18.928-33.284,27.026C331.138,250.135,294.16,256,256,256z"/>
<path style="fill:#FEFBE1;" d="M256,169.768c-38.16,0-75.138,5.865-101.453,16.09c-20.841,8.098-33.284,18.201-33.284,27.026
	s12.443,18.928,33.284,27.026c5.359,2.083,11.166,3.981,17.329,5.688l168.246-65.429C316.021,173.49,286.389,169.768,256,169.768z"
	/>
<path style="fill:#848075;" d="M256,328.758c-58.814,0-114.234-11.515-156.052-32.424c-43.6-21.799-67.611-51.436-67.611-83.45
	s24.011-61.65,67.611-83.45C141.766,108.526,197.186,97.011,256,97.011s114.234,11.515,156.052,32.424
	c43.6,21.799,67.611,51.436,67.611,83.45s-24.011,61.65-67.611,83.45C370.234,317.243,314.814,328.758,256,328.758z M256,113.179
	c-56.352,0-109.205,10.909-148.822,30.718c-37.836,18.917-58.673,43.418-58.673,68.987s20.837,50.07,58.673,68.987
	c39.617,19.808,92.469,30.718,148.822,30.718s109.205-10.909,148.822-30.718c37.836-18.917,58.673-43.418,58.673-68.987
	s-20.837-50.07-58.673-68.987C365.205,124.088,312.352,113.179,256,113.179z"/>
<path style="fill:#78ABB1;" d="M294.489,235.519c-0.714,0-1.434-0.085-2.144-0.261L256,226.248l-36.346,9.01
	c-3.275,0.815-6.783-0.314-8.654-2.783c-1.869-2.467-1.665-5.701,0.502-7.978l7.15-7.509l-27.073-6.712
	c-3.732-0.925-6.104-4.086-5.565-7.413c0.54-3.326,3.829-5.8,7.709-5.8h43.903l12.367-12.986c1.479-1.553,3.682-2.452,6.008-2.452
	s4.528,0.899,6.008,2.452l12.367,12.986h43.903c3.88,0,7.17,2.474,7.709,5.8c0.539,3.326-1.835,6.488-5.565,7.413l-27.073,6.712
	l7.15,7.509c2.169,2.277,2.372,5.51,0.502,7.978C299.536,234.408,297.066,235.519,294.489,235.519z"/>
<path style="fill:#92BCBC;" d="M274.375,197.064l-12.367-12.986c-1.479-1.553-3.682-2.452-6.008-2.452s-4.528,0.899-6.008,2.452
	l-12.367,12.986h-43.903c-3.88,0-7.17,2.474-7.709,5.8c-0.539,3.326,1.835,6.488,5.565,7.413l27.073,6.712l-7.15,7.509
	c-1.689,1.773-2.169,4.124-1.423,6.244l86.599-33.678H274.375z"/>
<path style="fill:#5B5751;" d="M256,296.421c-53.11,0-104.719-10.574-141.591-29.01c-31.607-15.804-49.735-35.678-49.735-54.526
	s18.128-38.722,49.735-54.526c36.873-18.436,88.481-29.01,141.591-29.01s104.719,10.574,141.591,29.01
	c31.607,15.804,49.735,35.678,49.735,54.526s-18.128,38.722-49.735,54.526C360.719,285.847,309.11,296.421,256,296.421z
	 M256,145.516c-50.685,0-99.658,9.951-134.361,27.303c-24.784,12.393-40.797,28.119-40.797,40.065s16.013,27.673,40.797,40.065
	c34.703,17.352,83.676,27.303,134.361,27.303s99.658-9.951,134.361-27.303c24.784-12.393,40.797-28.119,40.797-40.065
	s-16.013-27.673-40.797-40.065C355.658,155.467,306.685,145.516,256,145.516z"/>
</svg>